<?xml version="1.0" encoding="iso-8859-1"?>
<!-- Generator: Adobe Illustrator 19.0.0, SVG Export Plug-In . SVG Version: 6.00 Build 0)  -->
<svg xmlns="http://www.w3.org/2000/svg" xmlns:xlink="http://www.w3.org/1999/xlink" version="1.1" id="Layer_1" x="0px" y="0px" viewBox="0 0 378.81 378.81" style="enable-background:new 0 0 378.81 378.81;" xml:space="preserve" width="512" height="512">
<g>
	<polygon style="fill:#9AD14B;" points="338.098,159.004 338.098,194.014 302.278,194.014 219.828,194.014 42.518,194.014    42.518,159.004  "/>
	<polygon style="fill:#8BB73D;" points="77.111,159.004 77.111,194.014 72.919,194.014 63.27,194.014 42.518,194.014    42.518,159.004  "/>
	<polygon style="fill:#F4DE3B;" points="302.278,194.014 302.278,196.254 262.168,236.354 219.828,194.014  "/>
	<path style="fill:#B27214;" d="M338.098,194.014c9.17,0,17.47,3.72,23.48,9.73c6.01,6.01,9.73,14.31,9.73,23.47   c0,18.34-14.87,33.21-33.21,33.21H40.708c-9.17,0-17.47-3.72-23.48-9.73c-6.01-6.01-9.73-14.31-9.73-23.48   c0-18.33,14.87-33.2,33.21-33.2h1.81h177.31l42.34,42.34l40.11-40.1v-2.24H338.098z"/>
	<path style="fill:#F7B239;" d="M340.808,260.424c8.32,0,15.07,6.75,15.07,15.07v18.36c0,21.86-17.72,39.58-39.58,39.58H62.508   c-21.86,0-39.57-17.72-39.57-39.58v-18.36c0-8.32,6.74-15.07,15.06-15.07h2.71h297.39H340.808z"/>
	<path style="fill:#F7B239;" d="M355.878,143.934c0,8.32-6.75,15.07-15.07,15.07h-2.71H42.518h-4.52c-4.16,0-7.93-1.69-10.65-4.41   c-2.72-2.73-4.41-6.5-4.41-10.66c0-54.43,44.12-98.56,98.55-98.56h135.83c27.21,0,51.85,11.03,69.69,28.87   C344.848,92.074,355.878,116.714,355.878,143.934z"/>
	<path style="fill:#E09B2D;" d="M114.272,293.864v-18.37c0-8.32,6.74-15.06,15.06-15.06H40.708h-2.71   c-8.32,0-15.06,6.74-15.06,15.06v18.37c0,21.85,17.71,39.57,39.57,39.57h91.333C131.982,333.434,114.272,315.714,114.272,293.864z"/>
	<path style="fill:#E09B2D;" d="M99.605,143.944c0-54.43,44.12-98.56,98.55-98.56h-76.667c-54.43,0-98.55,44.13-98.55,98.56   c0,4.16,1.69,7.93,4.41,10.65c2.72,2.72,6.49,4.41,10.65,4.41h4.52h72.147c-4.16,0-7.93-1.69-10.65-4.41   C101.295,151.874,99.605,148.104,99.605,143.944z"/>
	<g>
		<path style="fill:#995E10;" d="M78.498,227.214c0-12.158,6.539-22.786,16.287-28.573l-4.637-4.637h-47.63h-1.81    c-18.34,0-33.21,14.87-33.21,33.21c0,9.17,3.72,17.47,9.73,23.48s14.31,9.73,23.48,9.73h1.81h69.19c-9.17,0-17.47-3.72-23.48-9.73    S78.498,236.384,78.498,227.214z"/>
	</g>
	<path style="fill:#FFFFFF;" d="M334.385,305.734c-4.142,0-7.5-3.358-7.5-7.5v-15.333c0-4.142,3.358-7.5,7.5-7.5s7.5,3.358,7.5,7.5   v15.333C341.885,302.377,338.527,305.734,334.385,305.734z"/>
	<path style="fill:#FFFFFF;" d="M333.49,138.979c-3.639,0-6.833-2.653-7.404-6.361c-2.197-14.29-8.815-27.3-19.138-37.623   c-3.038-3.037-6.354-5.791-9.859-8.184c-3.42-2.336-4.299-7.003-1.963-10.423c2.336-3.42,7.002-4.3,10.424-1.963   c4.271,2.917,8.31,6.27,12.004,9.963c12.596,12.595,20.672,28.485,23.358,45.95c0.629,4.094-2.179,7.923-6.273,8.553   C334.253,138.95,333.869,138.979,333.49,138.979z"/>
	<path style="fill:#FFFFFF;" d="M349.815,233.898c-4.142,0-7.5-3.358-7.5-7.5c0-0.923-0.434-1.55-0.797-1.914   c-0.363-0.363-0.99-0.796-1.913-0.796c-4.142,0-7.5-3.358-7.5-7.5s3.358-7.5,7.5-7.5c6.378,0,10.583,3.252,12.521,5.191   c1.938,1.938,5.189,6.143,5.189,12.519C357.315,230.54,353.957,233.898,349.815,233.898z"/>
	<circle style="fill:#FFFFFF;" cx="284.136" cy="71.883" r="7.5"/>
	<g>
		<path style="fill:#333333;" d="M378.81,227.219c0-20.2-14.792-37.002-34.111-40.165v-20.897    c10.595-1.848,18.677-11.106,18.677-22.221c0-58.48-47.577-106.058-106.058-106.058H121.492    c-58.48,0-106.058,47.577-106.058,106.058c0,11.115,8.082,20.373,18.677,22.221v20.897C14.792,190.216,0,207.019,0,227.219    c0,14.815,7.958,27.802,19.82,34.923c-2.754,3.741-4.385,8.356-4.385,13.347v18.37c0,25.956,21.117,47.073,47.072,47.073h253.796    c25.956,0,47.072-21.117,47.072-47.073v-18.37c0-4.991-1.632-9.606-4.385-13.347C370.853,255.021,378.81,242.033,378.81,227.219z     M49.111,186.512v-20.012h280.588v20.012H49.111z M286.412,201.512l-24.239,24.239l-24.239-24.239H286.412z M30.435,143.936    c0-50.209,40.848-91.058,91.058-91.058h135.826c50.209,0,91.058,40.848,91.058,91.058c0,4.17-3.393,7.563-7.563,7.563H37.998    C33.827,151.499,30.435,148.107,30.435,143.936z M340.813,267.926c4.17,0,7.563,3.393,7.563,7.563v18.37    c0,17.685-14.388,32.073-32.072,32.073H62.507c-17.685,0-32.072-14.388-32.072-32.073v-18.37c0-4.17,3.393-7.563,7.563-7.563    h2.709h297.396H340.813z M338.103,252.926H40.707C26.532,252.926,15,241.394,15,227.219s11.532-25.707,25.707-25.707h0.904H216.72    l40.149,40.149c1.464,1.465,3.384,2.197,5.303,2.197s3.839-0.732,5.303-2.197l40.102-40.102l-0.047-0.047h29.669h0.904    c14.175,0,25.708,11.532,25.708,25.707S352.278,252.926,338.103,252.926z"/>
		<circle style="fill:#333333;" cx="115.888" cy="76.002" r="7.5"/>
		<circle style="fill:#333333;" cx="262.928" cy="76.002" r="7.5"/>
		<circle style="fill:#333333;" cx="164.902" cy="76.002" r="7.5"/>
		<circle style="fill:#333333;" cx="213.915" cy="76.002" r="7.5"/>
	</g>
</g>















</svg>
